<?xml version="1.0" encoding="UTF-8" standalone="no"?>
<!-- Created with Inkscape (http://www.inkscape.org/) -->

<svg
   xmlns:dc="http://purl.org/dc/elements/1.1/"
   xmlns:cc="http://creativecommons.org/ns#"
   xmlns:rdf="http://www.w3.org/1999/02/22-rdf-syntax-ns#"
   xmlns:svg="http://www.w3.org/2000/svg"
   xmlns="http://www.w3.org/2000/svg"
   xmlns:sodipodi="http://sodipodi.sourceforge.net/DTD/sodipodi-0.dtd"
   xmlns:inkscape="http://www.inkscape.org/namespaces/inkscape"
   width="317.92242mm"
   height="245.25832mm"
   viewBox="0 0 317.92242 245.25832"
   version="1.1"
   id="svg8"
   inkscape:version="0.92.2 (5c3e80d, 2017-08-06)"
   sodipodi:docname="RemaSawco.svg">
  <defs
     id="defs2" />
  <sodipodi:namedview
     id="base"
     pagecolor="#ffffff"
     bordercolor="#666666"
     borderopacity="1.0"
     inkscape:pageopacity="0.0"
     inkscape:pageshadow="2"
     inkscape:zoom="0.49497475"
     inkscape:cx="-453.6307"
     inkscape:cy="223.57543"
     inkscape:document-units="mm"
     inkscape:current-layer="layer1"
     showgrid="false"
     inkscape:window-width="1920"
     inkscape:window-height="1017"
     inkscape:window-x="3832"
     inkscape:window-y="-8"
     inkscape:window-maximized="1" />
  <metadata
     id="metadata5">
    <rdf:RDF>
      <cc:Work
         rdf:about="">
        <dc:format>image/svg+xml</dc:format>
        <dc:type
           rdf:resource="http://purl.org/dc/dcmitype/StillImage" />
        <dc:title></dc:title>
      </cc:Work>
    </rdf:RDF>
  </metadata>
  <g
     inkscape:label="Layer 1"
     inkscape:groupmode="layer"
     id="layer1"
     transform="translate(64.721523,-2.7217985)">
    <path
       style="fill:#0c5e9a;fill-opacity:1;stroke-width:0.26458335"
       d="m -20.148013,247.5797 c -2.18632,-0.47598 -3.86971,-1.31386 -5.39512,-2.68533 -1.67293,-1.50412 -2.72093,-3.17397 -3.63292,-5.78862 -0.69097,-1.98098 -0.73876,-2.39653 -0.74553,-6.4823 -0.007,-4.10454 0.0366,-4.48948 0.72542,-6.43673 1.85338,-5.23933 5.17901,-8.19263 10.08419,-8.95522 1.55375,-0.24156 2.48519,-0.2414 4.06597,7.9e-4 6.3354001,0.97025 10.2164301,5.93782 10.8129801,13.84021 l 0.17701,2.3447 h -11.2827501 -11.28276 v 1.13504 c 0,1.55082 0.66469,3.97712 1.53006,5.58517 0.93825,1.74346 2.34928,3.14093 4.0833,4.04406 1.24843,0.65021 1.68135,0.72907 4.04393,0.73664 3.25071,0.0104 4.78675,-0.57833 6.61871,-2.53685 1.1207201,-1.19814 2.5007401,-3.62035 2.5068301,-4.39999 0.002,-0.2304 0.52432,-0.33073 1.72238,-0.33073 0.94589,0 1.71979,0.11364 1.71979,0.25254 0,0.13891 -0.28846,1.04726 -0.64103,2.01858 -0.77025,2.122 -2.24403,4.33394 -3.60677,5.41326 -2.8504601,2.2576 -7.3825701,3.14197 -11.5036901,2.24478 z m 12.4376801,-18.46198 c -0.41162,-3.03381 -2.02589,-6.00166 -4.0731101,-7.48847 -3.57787,-2.59845 -8.67764,-2.13585 -11.61782,1.05388 -1.66117,1.80216 -3.20681,5.27496 -3.21712,7.22834 l -0.003,0.59532 h 9.54983 9.5498301 z m 56.3018399,18.59062 c -4.37898,-0.93444 -6.95053,-3.9307 -6.95053,-8.09848 0,-2.86372 0.42319,-4.00908 2.09752,-5.67698 1.99463,-1.98697 4.0937,-2.67263 10.84215,-3.5416 2.76628,-0.3562 5.24434,-0.76256 5.50678,-0.90302 2.22579,-1.1912 2.45789,-5.21434 0.43029,-7.45865 -1.35408,-1.4988 -2.84067,-1.97386 -6.17674,-1.97386 -3.23027,0 -4.39426,0.33015 -5.87254,1.66569 -1.23841,1.11883 -1.70206,1.9509 -2.08684,3.74504 l -0.28655,1.33614 h -1.69125 -1.69125 l 0.15293,-0.8599 c 0.55047,-3.09512 1.32977,-4.63415 3.16417,-6.24886 4.12719,-3.63289 13.9633,-3.4507 17.1895,0.31839 0.49895,0.58291 1.14626,1.69883 1.43847,2.47982 0.49328,1.31841 0.53139,2.05806 0.53276,10.33975 7.9e-4,5.18709 0.11326,9.32223 0.26861,9.88152 0.29877,1.07559 1.36126,1.70624 2.50596,1.48742 0.63996,-0.12233 0.66353,-0.0776 0.66353,1.25786 v 1.3847 l -1.08383,0.17331 c -1.2517,0.20016 -2.69374,-0.0126 -3.76566,-0.55549 -0.89451,-0.45307 -1.50051,-1.77284 -1.50051,-3.2679 0,-0.59889 -0.10609,-1.0492 -0.23576,-1.00069 -0.12967,0.0485 -0.73008,0.71622 -1.33424,1.4838 -2.17962,2.76919 -4.67422,3.97764 -8.58533,4.15898 -1.32681,0.0615 -2.91604,0.004 -3.53164,-0.12699 z m 7.46926,-3.4586 c 2.09424,-0.79122 4.59823,-3.23566 5.26933,-5.14399 0.48049,-1.36633 0.90144,-6.85642 0.58829,-7.67249 -0.15124,-0.39411 -0.20743,-0.39675 -0.5771,-0.0271 -0.54635,0.54635 -1.66929,0.81821 -6.07427,1.47058 -6.20476,0.9189 -8.76135,1.98285 -9.74484,4.05541 -0.49989,1.05344 -0.58041,3.22619 -0.1608,4.33916 0.53371,1.41564 2.33739,2.93778 4.21539,3.55741 1.17245,0.38684 4.78032,0.0647 6.484,-0.579 z m 29.10417,3.33001 c -7.40372,-1.36629 -11.79763,-5.66827 -12.4675,-12.20666 l -0.17328,-1.6913 h 5.1676 c 5.56244,0 5.4851,-0.0199 5.49129,1.4107 0.001,0.31552 0.35496,1.18823 0.78575,1.93936 0.63651,1.10979 1.06984,1.50641 2.31263,2.11667 1.37033,0.67289 1.80445,0.75098 4.17518,0.75098 3.14575,0 4.73181,-0.50151 5.9408,-1.87847 0.66324,-0.75539 0.80608,-1.14725 0.80608,-2.21143 0,-1.10198 -0.12516,-1.41851 -0.84583,-2.13919 -1.16165,-1.16164 -2.42701,-1.65359 -8.54688,-3.32287 -3.43194,-0.9361 -6.06666,-1.82635 -7.49683,-2.53309 -3.80668,-1.88114 -5.87383,-4.48495 -6.37607,-8.03138 -1.07587,-7.59705 4.91787,-13.17786 14.81907,-13.79814 7.24285,-0.45374 13.650953,2.32776 16.214663,7.03813 0.67401,1.23838 1.48073,4.08219 1.48838,5.24675 l 0.004,0.59531 h -5.29166 -5.291673 v -0.82867 c 0,-1.3249 -0.91419,-2.50147 -2.57499,-3.31403 -1.27036,-0.62152 -1.82257,-0.72902 -3.75662,-0.7313 -1.83583,-0.002 -2.48033,0.10939 -3.38638,0.58617 -1.83142,0.96373 -2.47691,2.98398 -1.39348,4.36134 0.82571,1.04972 2.37746,1.65824 7.9058,3.1003 7.20038,1.8782 10.067143,3.14825 12.313303,5.45509 2.85733,2.93454 3.50875,7.6181 1.7233,12.39015 -0.85625,2.28853 -3.21245,4.66651 -5.9125,5.96716 -3.998853,1.92629 -10.604493,2.65658 -15.634063,1.72842 z m 31.353133,-0.0124 c -0.80037,-0.22117 -2.10935,-0.84779 -2.90885,-1.3925 -1.16697,-0.79507 -1.63586,-1.34831 -2.37761,-2.80528 -0.83026,-1.63085 -0.9241,-2.03296 -0.92539,-3.96539 -0.002,-2.7438 0.60201,-4.53697 2.01977,-5.99787 1.85775,-1.91428 4.40537,-2.79833 10.6697,-3.70246 5.93036,-0.85593 6.67862,-1.18397 6.9257,-3.03622 0.1114,-0.83513 0.0156,-1.21455 -0.4589,-1.81647 -1.36885,-1.73665 -4.63054,-2.28622 -6.86909,-1.15738 -0.88977,0.44868 -1.33408,0.90485 -1.80392,1.85208 l -0.62339,1.25677 h -4.37351 -4.37352 l 0.16876,-1.25677 c 0.25176,-1.87487 1.5924,-4.39519 2.91398,-5.47813 2.29906,-1.8839 5.09494,-2.7529 9.55689,-2.9704 5.27585,-0.25717 9.15343,0.52456 11.72074,2.36294 0.90896,0.65088 1.49317,1.37777 2.16989,2.69985 l 0.92604,1.80917 0.1483,10.34636 c 0.12139,8.46871 0.22473,10.57443 0.56942,11.60313 l 0.42112,1.25677 h -4.72641 -4.72641 l -0.28903,-1.12448 c -0.15897,-0.61847 -0.31303,-1.2157 -0.34236,-1.3272 -0.0293,-0.11149 -0.67304,0.26294 -1.43049,0.83208 -2.04542,1.5369 -4.1458,2.17217 -7.61581,2.30343 -2.08348,0.0788 -3.32388,-0.004 -4.36562,-0.29203 z m 10.3267,-6.0142 c 2.03106,-1.02606 2.89842,-2.88313 2.90099,-6.21116 l 0.002,-1.91168 -0.69539,0.26439 c -0.38246,0.14541 -1.84098,0.51009 -3.24114,0.8104 -4.37454,0.93826 -5.81708,1.89243 -6.03049,3.98887 -0.14384,1.41299 0.59279,2.72164 1.83629,3.26223 1.35878,0.5907 3.84846,0.49401 5.22826,-0.20305 z m 73.33206,5.88037 c -4.84989,-1.27053 -8.70487,-4.92305 -10.17402,-9.63969 -0.75322,-2.41817 -0.79663,-7.07819 -0.0901,-9.66828 1.08984,-3.99512 3.73271,-7.48934 6.95901,-9.20077 5.85132,-3.10388 14.13656,-2.28084 18.49033,1.83679 2.06005,1.94829 3.15905,3.94354 3.65541,6.63637 l 0.18288,0.99219 h -4.60032 -4.60031 l -0.30974,-1.0338 c -0.61579,-2.0554 -3.11973,-3.4324 -5.57255,-3.06458 -2.71767,0.40754 -4.33308,2.13596 -5.01722,5.36817 -0.90609,4.28094 0.31507,8.8695 2.76305,10.38244 1.13278,0.7001 3.11409,0.92329 4.61311,0.51964 1.53221,-0.41257 2.96995,-1.89552 3.42967,-3.53748 l 0.34327,-1.22606 h 4.60782 4.6078 l -0.18381,0.99219 c -1.0246,5.53089 -4.82073,9.44479 -10.44683,10.77095 -2.35712,0.55561 -6.26859,0.49774 -8.65749,-0.12808 z m 33.4577,0.11668 c -7.05538,-1.70794 -11.63955,-8.25699 -11.18912,-15.98507 0.25561,-4.38576 1.45725,-7.14972 4.38203,-10.07942 3.29827,-3.30381 6.9864,-4.65986 11.92813,-4.38573 6.67604,0.37034 11.85515,4.35111 13.82825,10.62869 0.88421,2.81317 0.81018,7.17779 -0.17055,10.05417 -1.71074,5.01741 -5.4611,8.47819 -10.60444,9.78561 -1.95651,0.49733 -6.0825,0.48812 -8.1743,-0.0183 z m 6.31394,-7.2181 c 2.51329,-1.14177 3.70596,-3.67275 3.69482,-7.84093 -0.009,-3.31344 -0.54653,-5.02829 -2.07365,-6.6138 -2.04178,-2.11985 -5.01686,-2.26117 -7.2025,-0.34213 -1.82735,1.60443 -2.63575,4.24483 -2.42597,7.92383 0.21127,3.70536 1.77057,6.39874 4.11338,7.10496 1.21422,0.36603 2.78341,0.27256 3.89392,-0.23193 z M -64.721523,226.93491 v -20.24062 l 10.3849,0.004 c 11.27847,0.004 12.33413,0.10856 15.17452,1.49936 1.72426,0.84429 3.63437,2.80471 4.40854,4.52467 0.782,1.73734 0.95331,5.73537 0.33819,7.89257 -0.89413,3.13566 -3.27013,5.63417 -6.15425,6.47158 -1.30697,0.37948 -1.27008,0.64274 0.12123,0.86522 1.50223,0.24022 3.35805,1.54342 4.16937,2.92783 0.98802,1.68593 1.38488,3.404 1.58128,6.84554 0.22706,3.97868 0.62201,6.67243 1.20295,8.20455 l 0.4806,1.26751 -2.02884,-0.0769 -2.02883,-0.0769 -0.32047,-0.98064 c -0.17625,-0.53936 -0.45226,-2.80154 -0.61335,-5.02709 -0.5247,-7.2491 -1.4851,-9.72421 -4.33913,-11.18264 l -1.56809,-0.8013 h -8.48608 -8.48608 l -0.0696,9.06198 -0.0696,9.06198 h -1.84861 -1.84861 z m 22.01889,-1.67824 c 1.7271,-0.68801 3.54346,-2.32113 4.31312,-3.87801 0.77949,-1.57675 0.74944,-5.92122 -0.0512,-7.40833 -0.77391,-1.43741 -2.07225,-2.62964 -3.6589,-3.35989 -1.2836,-0.59077 -1.58432,-0.61122 -10.12031,-0.68824 l -8.79739,-0.0794 v 8.10272 8.10272 l 8.40052,-0.0943 c 8.00657,-0.0899 8.4715,-0.12258 9.91419,-0.69729 z m 41.2165301,7.23449 V 217.80679 H 0.09181707 1.6697371 l 0.0757,2.52616 0.0757,2.52617 1.04484,-1.44368 c 1.32014,-1.82406 2.46851,-2.74024 4.4947,-3.58588 1.33495,-0.55715 2.02894,-0.66981 4.1347299,-0.67126 2.32884,-0.002 2.67156,0.0677 4.30034,0.86955 1.81027,0.89119 3.45354,2.59474 3.78787,3.92682 0.0848,0.33804 0.23065,0.60815 0.32402,0.60025 0.0934,-0.008 0.52694,-0.57074 0.9635,-1.25075 0.96723,-1.5066 2.84083,-2.95725 4.69926,-3.63844 1.91743,-0.70282 5.58399,-0.70435 7.73616,-0.003 2.37712,0.7744 4.13184,2.62118 4.94247,5.20181 0.60122,1.91398 0.61378,2.18123 0.61378,13.06645 v 11.1125 l -1.63563,0.0783 -1.63563,0.0783 -0.0963,-11.1908 c -0.10241,-11.90456 -0.12539,-12.12537 -1.44685,-13.90523 -0.89548,-1.20611 -2.4551,-1.92384 -4.56481,-2.10071 -4.55701,-0.38204 -7.5848,1.8313 -8.59779,6.28506 -0.3313,1.45661 -0.41157,3.66993 -0.41157,11.34844 v 9.53892 h -1.70663 -1.70663 l -0.0793,-11.31094 c -0.0758,-10.81411 -0.10352,-11.36324 -0.63049,-12.50156 -1.05616,-2.28144 -3.00789,-3.43502 -5.81694,-3.43811 -3.7183399,-0.004 -6.4799899,2.06872 -7.9294999,5.95165 -0.44274,1.18603 -0.50377,2.35642 -0.58977,11.31094 l -0.0959,9.98802 H 0.21645707 -1.4861529 Z M 150.54277,246.71252 c -0.0782,-0.25466 -2.1103,-6.76771 -4.51574,-14.47344 -2.40545,-7.70574 -4.37354,-14.10534 -4.37354,-14.22136 0,-0.11601 2.12745,-0.21093 4.72768,-0.21093 h 4.72768 l 0.78414,2.97656 c 0.43127,1.63711 1.54551,5.92336 2.47609,9.525 0.93058,3.60164 1.76067,6.54844 1.84466,6.54844 0.084,0 1.09069,-4.28625 2.23712,-9.525 l 2.08443,-9.525 h 4.53434 4.53434 l 2.0743,9.19427 c 1.14087,5.05685 2.16312,9.36776 2.27168,9.57981 0.13679,0.26719 0.28089,0.0642 0.46947,-0.66146 0.14965,-0.57585 1.25,-4.88676 2.44521,-9.57981 l 2.17313,-8.53281 h 4.82153 4.82156 l -2.24409,7.20989 c -1.23426,3.96545 -3.28496,10.54365 -4.55713,14.61823 l -2.31299,7.40834 -4.86752,0.0709 -4.86751,0.0709 -2.22169,-9.46361 c -1.22193,-5.20499 -2.30908,-9.63183 -2.41589,-9.83744 -0.24751,-0.47647 -0.0503,-1.21299 -2.66807,9.96497 l -2.18418,9.32657 h -4.8284 c -4.36791,0 -4.84196,-0.0442 -4.97061,-0.46302 z M 80.005567,189.28396 c -3.21219,-0.84528 -5.80872,-2.82771 -8.14514,-6.21872 -1.60227,-2.32549 -2.34679,-3.78008 -4.29204,-8.38554 -0.82978,-1.96453 -8.45447,-19.52625 -16.94377,-39.02604 -15.0183,-34.49684 -15.43808,-35.5064 -15.54639,-37.388649 -0.13767,-2.39266 0.37732,-3.89951 1.89573,-5.54678 1.4145,-1.53456 2.65075,-2.12892 5.41812,-2.60492 4.53875,-0.78068 8.243,-2.18603 11.45199,-4.34475 7.51144,-5.053025 11.49966,-11.959725 13.36194,-23.139897 0.65658,-3.941729 0.60276,-11.267602 -0.11175,-15.213542 C 64.494277,33.056557 55.356767,23.2678 41.177437,19.651156 35.795667,18.278457 35.138337,18.25182 3.8055671,18.136731 -28.893233,18.016624 -26.715833,18.152121 -28.943413,16.098816 c -1.65762,-1.527947 -2.23987,-2.812923 -2.38639,-5.266569 -0.11364,-1.9031408 -0.0603,-2.1813938 0.7223,-3.7711768 0.58902,-1.196477 1.21439,-1.998484 2.06442,-2.647531 2.40847,-1.839 0.74561,-1.757926 33.5975401,-1.63808 31.7790599,0.115933 31.7661799,0.115415 38.4139399,1.545357 20.63773,4.439205 35.17649,19.8474058 38.91505,41.2422218 0.81288,4.651949 0.9996,11.896143 0.43215,16.76643 -1.8902,16.223148 -8.58649,28.208743 -20.12995,36.030323 -1.16983,0.79265 -3.31758,1.972759 -4.77279,2.622459 -3.45184,1.54115 -3.94486,1.97124 -3.76833,3.28736 0.0743,0.55425 5.04661,12.30725 11.0495,26.11777 6.00289,13.81051 12.45008,28.66544 14.3271,33.01095 3.22111,7.45724 4.68251,10.31595 5.41784,10.59812 0.1758,0.0675 21.789343,0.13846 48.030103,0.15778 53.13963,0.0391 48.84396,0.18506 52.86245,-1.79602 4.01479,-1.97924 8.41312,-5.92824 11.32023,-10.16372 8.08312,-11.77669 9.76796,-29.33372 4.06024,-42.31037 -3.28004,-7.45729 -9.80363,-13.71242 -16.696,-16.00897 -1.36144,-0.45363 -3.25372,-0.49492 -29.36875,-0.64079 -27.19276,-0.15189 -27.97696,-0.17039 -30.36936,-0.71657 -8.20586,-1.87338 -14.04965,-5.075059 -19.92229,-10.914989 -3.64693,-3.62662 -6.168853,-7.10236 -8.431213,-11.620015 -10.9267,-21.819326 -6.32265,-50.983305 10.586833,-67.061427 4.20604,-3.9992418 8.5129,-6.6315628 13.68575,-8.3646278 4.89354,-1.639486 3.6388,-1.591611 41.71384,-1.591611 38.40423,0 36.04045,-0.105647 38.15621,1.705365 2.43269,2.082302 3.35003,5.6667548 2.21766,8.6655888 -0.74366,1.969474 -2.88353,3.991808 -4.83793,4.572201 -1.18256,0.35118 -5.65568,0.403267 -34.97617,0.407273 -28.66512,0.0039 -33.89318,0.06233 -35.47229,0.396314 -2.29941,0.486331 -5.56447,2.039825 -7.72978,3.677774 -6.04348,4.571606 -11.1,13.652937 -13.10393,23.534244 -0.51234,2.526318 -0.59528,3.738713 -0.58166,8.5027 0.0171,5.990987 0.35323,8.352348 1.87408,13.166691 2.86503,9.069425 8.85022,15.94112 16.29453,18.70803 4.00953,1.49027 2.52263,1.41845 32.88009,1.58821 l 28.04584,0.15684 2.55838,0.69812 c 5.18049,1.41361 10.43464,4.24212 15.05506,8.10471 9.16284,7.659959 15.08318,19.158629 16.79702,32.623639 0.60068,4.71927 0.41894,13.50519 -0.37415,18.08709 -2.09751,12.11813 -7.18859,22.36477 -14.98631,30.1625 -5.85486,5.85485 -12.47297,9.73853 -19.31459,11.33431 -2.3695,0.55267 -2.62982,0.55572 -52.78437,0.61761 -46.832353,0.0578 -50.524973,0.0301 -52.122923,-0.39037 z"
       id="path21"
       inkscape:connector-curvature="0" />
  </g>
</svg>
